<?xml version="1.0" encoding="UTF-8" standalone="no"?>
<!DOCTYPE svg PUBLIC "-//W3C//DTD SVG 1.1//EN"
 "http://www.w3.org/Graphics/SVG/1.1/DTD/svg11.dtd">
<!-- Generated by graphviz version 2.40.1 (20161225.0304)
 -->
<!-- Title: CenterState Pages: 1 -->
<svg width="3720pt" height="470pt"
 viewBox="0.00 0.00 3719.97 470.00" xmlns="http://www.w3.org/2000/svg" xmlns:xlink="http://www.w3.org/1999/xlink">
<g id="graph0" class="graph" transform="scale(1 1) rotate(0) translate(4 466)">
<title>CenterState</title>
<polygon fill="#ffffff" stroke="transparent" points="-4,4 -4,-466 3715.972,-466 3715.972,4 -4,4"/>
<text text-anchor="middle" x="1855.986" y="-7" font-family="Arial" font-size="10.00" fill="#000000">CenterState</text>
<g id="clust2" class="cluster">
<title>cluster_centerstate_anchor_atomic</title>
</g>
<!-- centerstate_anchor -->
<g id="node1" class="node">
<title>centerstate_anchor</title>
<ellipse fill="#000000" stroke="#000000" cx="7.2" cy="-244" rx="7.2" ry="7.2"/>
</g>
<!-- free -->
<g id="node2" class="node">
<title>free</title>
<path fill="#40e0d0" stroke="#000000" stroke-width="2" d="M169.301,-266C169.301,-266 63.433,-266 63.433,-266 57.433,-266 51.433,-260 51.433,-254 51.433,-254 51.433,-234 51.433,-234 51.433,-228 57.433,-222 63.433,-222 63.433,-222 169.301,-222 169.301,-222 175.301,-222 181.301,-228 181.301,-234 181.301,-234 181.301,-254 181.301,-254 181.301,-260 175.301,-266 169.301,-266"/>
<text text-anchor="middle" x="116.367" y="-253" font-family="Arial" font-size="10.00" fill="#000000">Planning free to be edited</text>
<text text-anchor="middle" x="116.367" y="-241" font-family="Arial" font-size="10.00" fill="#000000">entry / on_enter_free</text>
<text text-anchor="middle" x="116.367" y="-229" font-family="Arial" font-size="10.00" fill="#000000">exit / on_exit_free</text>
</g>
<!-- centerstate_anchor&#45;&gt;free -->
<g id="edge1" class="edge">
<title>centerstate_anchor&#45;&gt;free</title>
<path fill="none" stroke="#0000ff" d="M14.7035,-244C20.8996,-244 30.3987,-244 41.1501,-244"/>
<polygon fill="#0000ff" stroke="#0000ff" points="41.3172,-247.5001 51.3172,-244 41.3172,-240.5001 41.3172,-247.5001"/>
</g>
<!-- free&#45;&gt;free -->
<g id="edge3" class="edge">
<title>free&#45;&gt;free</title>
<path fill="none" stroke="#0000ff" d="M101.1759,-266.2124C99.9322,-275.7952 104.9959,-284 116.367,-284 123.2963,-284 127.8833,-280.9533 130.1282,-276.4045"/>
<polygon fill="#0000ff" stroke="#0000ff" points="133.6348,-276.6017 131.5581,-266.2124 126.7027,-275.6291 133.6348,-276.6017"/>
<text text-anchor="middle" x="116.367" y="-286.7" font-family="Arial" font-size="9.00" fill="#000000">force_to_free</text>
</g>
<!-- edit -->
<g id="node3" class="node">
<title>edit</title>
<path fill="#ffffff" stroke="#000000" d="M439.5949,-239C439.5949,-239 341.3007,-239 341.3007,-239 335.3007,-239 329.3007,-233 329.3007,-227 329.3007,-227 329.3007,-215 329.3007,-215 329.3007,-209 335.3007,-203 341.3007,-203 341.3007,-203 439.5949,-203 439.5949,-203 445.5949,-203 451.5949,-209 451.5949,-215 451.5949,-215 451.5949,-227 451.5949,-227 451.5949,-233 445.5949,-239 439.5949,-239"/>
<text text-anchor="middle" x="390.4478" y="-218" font-family="Arial" font-size="10.00" fill="#000000">Planning is being edited</text>
</g>
<!-- free&#45;&gt;edit -->
<g id="edge2" class="edge">
<title>free&#45;&gt;edit</title>
<path fill="none" stroke="#0000ff" d="M147.2396,-221.7652C166.622,-209.2076 192.7225,-194.7495 218.334,-188.2 258.5678,-177.9112 304.8384,-187.9248 339.2644,-199.5126"/>
<polygon fill="#0000ff" stroke="#0000ff" points="338.5009,-202.9542 349.0957,-202.9721 340.8245,-196.3511 338.5009,-202.9542"/>
<text text-anchor="middle" x="255.3541" y="-190.7" font-family="Arial" font-size="9.00" fill="#000000">progress</text>
</g>
<!-- edit&#45;&gt;free -->
<g id="edge5" class="edge">
<title>edit&#45;&gt;free</title>
<path fill="none" stroke="#0000ff" d="M329.1071,-226.0043C296.2496,-228.6992 255.0817,-232.0984 218.334,-235.2 209.6507,-235.9329 200.5522,-236.7079 191.5161,-237.4821"/>
<polygon fill="#0000ff" stroke="#0000ff" points="191.0301,-234.0109 181.3662,-238.3535 191.629,-240.9852 191.0301,-234.0109"/>
<text text-anchor="middle" x="255.3541" y="-237.7" font-family="Arial" font-size="9.00" fill="#000000">abandon_changes</text>
</g>
<!-- edit&#45;&gt;free -->
<g id="edge6" class="edge">
<title>edit&#45;&gt;free</title>
<path fill="none" stroke="#0000ff" d="M329.4274,-239.0524C317.2575,-241.9426 304.4913,-244.4799 292.3743,-246 259.5481,-250.118 223.0086,-250.3954 191.7672,-249.344"/>
<polygon fill="#0000ff" stroke="#0000ff" points="191.517,-245.8317 181.3884,-248.9401 191.2447,-252.8264 191.517,-245.8317"/>
<text text-anchor="middle" x="255.3541" y="-251.7" font-family="Arial" font-size="9.00" fill="#000000">edit_timer_done</text>
</g>
<!-- edit&#45;&gt;free -->
<g id="edge7" class="edge">
<title>edit&#45;&gt;free</title>
<path fill="none" stroke="#0000ff" d="M358.4399,-239.0624C339.8005,-248.536 315.4832,-259.1565 292.3743,-264 259.6464,-270.8595 222.9681,-268.2841 191.5993,-263.0509"/>
<polygon fill="#0000ff" stroke="#0000ff" points="192.0726,-259.5801 181.6129,-261.267 190.8416,-266.4711 192.0726,-259.5801"/>
<text text-anchor="middle" x="255.3541" y="-270.7" font-family="Arial" font-size="9.00" fill="#000000">force_to_free</text>
</g>
<!-- save_db -->
<g id="node4" class="node">
<title>save_db</title>
<path fill="#ffffff" stroke="#000000" d="M729.1202,-223C729.1202,-223 590.6778,-223 590.6778,-223 584.6778,-223 578.6778,-217 578.6778,-211 578.6778,-211 578.6778,-199 578.6778,-199 578.6778,-193 584.6778,-187 590.6778,-187 590.6778,-187 729.1202,-187 729.1202,-187 735.1202,-187 741.1202,-193 741.1202,-199 741.1202,-199 741.1202,-211 741.1202,-211 741.1202,-217 735.1202,-223 729.1202,-223"/>
<text text-anchor="middle" x="659.899" y="-208" font-family="Arial" font-size="10.00" fill="#000000">Saving new planning in database</text>
<text text-anchor="middle" x="659.899" y="-196" font-family="Arial" font-size="10.00" fill="#000000">entry / on_enter_save_db</text>
</g>
<!-- edit&#45;&gt;save_db -->
<g id="edge4" class="edge">
<title>edit&#45;&gt;save_db</title>
<path fill="none" stroke="#0000ff" d="M451.5904,-217.3694C486.0839,-215.3211 529.8602,-212.7217 568.3705,-210.435"/>
<polygon fill="#0000ff" stroke="#0000ff" points="568.783,-213.9167 578.5579,-209.83 568.368,-206.929 568.783,-213.9167"/>
<text text-anchor="middle" x="515.0299" y="-217.7" font-family="Arial" font-size="9.00" fill="#000000">progress</text>
</g>
<!-- save_db&#45;&gt;free -->
<g id="edge10" class="edge">
<title>save_db&#45;&gt;free</title>
<path fill="none" stroke="#0000ff" d="M587.7405,-186.9549C499.1186,-167.9134 344.9704,-144.9866 218.334,-179 193.0783,-185.7835 168.2583,-201.3553 149.4298,-215.5568"/>
<polygon fill="#0000ff" stroke="#0000ff" points="147.2269,-212.8361 141.4826,-221.7386 151.5248,-218.3614 147.2269,-212.8361"/>
<text text-anchor="middle" x="390.4478" y="-167.7" font-family="Arial" font-size="9.00" fill="#000000">force_to_free</text>
</g>
<!-- wait_01 -->
<g id="node5" class="node">
<title>wait_01</title>
<path fill="#ffffff" stroke="#000000" d="M1395.0018,-262C1395.0018,-262 1247.9458,-262 1247.9458,-262 1241.9458,-262 1235.9458,-256 1235.9458,-250 1235.9458,-250 1235.9458,-238 1235.9458,-238 1235.9458,-232 1241.9458,-226 1247.9458,-226 1247.9458,-226 1395.0018,-226 1395.0018,-226 1401.0018,-226 1407.0018,-232 1407.0018,-238 1407.0018,-238 1407.0018,-250 1407.0018,-250 1407.0018,-256 1401.0018,-262 1395.0018,-262"/>
<text text-anchor="middle" x="1321.4738" y="-247" font-family="Arial" font-size="10.00" fill="#000000">Waiting for 1am at center timezone</text>
<text text-anchor="middle" x="1321.4738" y="-235" font-family="Arial" font-size="10.00" fill="#000000">entry / on_enter_wait_01</text>
</g>
<!-- save_db&#45;&gt;wait_01 -->
<g id="edge8" class="edge">
<title>save_db&#45;&gt;wait_01</title>
<path fill="none" stroke="#0000ff" d="M703.1473,-223.0159C731.5258,-233.2346 769.7358,-244 804.7681,-244 804.7681,-244 804.7681,-244 1165.6962,-244 1185.0417,-244 1205.7385,-244 1225.521,-244"/>
<polygon fill="#0000ff" stroke="#0000ff" points="1225.7707,-247.5001 1235.7707,-244 1225.7707,-240.5001 1225.7707,-247.5001"/>
<text text-anchor="middle" x="981.8547" y="-246.7" font-family="Arial" font-size="9.00" fill="#000000">progress</text>
</g>
<!-- w_reco_save -->
<g id="node10" class="node">
<title>w_reco_save</title>
<path fill="#ffffff" stroke="#000000" d="M1083.5108,-208C1083.5108,-208 880.1986,-208 880.1986,-208 874.1986,-208 868.1986,-202 868.1986,-196 868.1986,-196 868.1986,-184 868.1986,-184 868.1986,-178 874.1986,-172 880.1986,-172 880.1986,-172 1083.5108,-172 1083.5108,-172 1089.5108,-172 1095.5108,-178 1095.5108,-184 1095.5108,-184 1095.5108,-196 1095.5108,-196 1095.5108,-202 1089.5108,-208 1083.5108,-208"/>
<text text-anchor="middle" x="981.8547" y="-187" font-family="Arial" font-size="10.00" fill="#000000">Saving new planning failed, waiting for recovery</text>
</g>
<!-- save_db&#45;&gt;w_reco_save -->
<g id="edge9" class="edge">
<title>save_db&#45;&gt;w_reco_save</title>
<path fill="none" stroke="#0000ff" d="M741.142,-201.2149C776.4539,-199.5697 818.6138,-197.6054 857.7107,-195.7839"/>
<polygon fill="#0000ff" stroke="#0000ff" points="858.2853,-199.261 868.1116,-195.2993 857.9595,-192.2686 858.2853,-199.261"/>
<text text-anchor="middle" x="804.7681" y="-201.7" font-family="Arial" font-size="9.00" fill="#000000">problem</text>
</g>
<!-- wait_01&#45;&gt;free -->
<g id="edge12" class="edge">
<title>wait_01&#45;&gt;free</title>
<path fill="none" stroke="#0000ff" d="M1299.3017,-262.2921C1270.4246,-284.2057 1217.4943,-318 1165.6962,-318 849.7767,-318 849.7767,-318 849.7767,-318 568.7047,-318 493.2111,-341.6859 218.334,-283 203.7257,-279.8811 188.4477,-274.9863 174.297,-269.7045"/>
<polygon fill="#0000ff" stroke="#0000ff" points="175.2922,-266.337 164.7026,-266.0032 172.7727,-272.8679 175.2922,-266.337"/>
<text text-anchor="middle" x="659.899" y="-324.7" font-family="Arial" font-size="9.00" fill="#000000">force_to_free</text>
</g>
<!-- transfer -->
<g id="node6" class="node">
<title>transfer</title>
<path fill="#ffffff" stroke="#000000" d="M1674.2166,-262C1674.2166,-262 1545.9344,-262 1545.9344,-262 1539.9344,-262 1533.9344,-256 1533.9344,-250 1533.9344,-250 1533.9344,-238 1533.9344,-238 1533.9344,-232 1539.9344,-226 1545.9344,-226 1545.9344,-226 1674.2166,-226 1674.2166,-226 1680.2166,-226 1686.2166,-232 1686.2166,-238 1686.2166,-238 1686.2166,-250 1686.2166,-250 1686.2166,-256 1680.2166,-262 1674.2166,-262"/>
<text text-anchor="middle" x="1610.0755" y="-247" font-family="Arial" font-size="10.00" fill="#000000">Transferring planning to center</text>
<text text-anchor="middle" x="1610.0755" y="-235" font-family="Arial" font-size="10.00" fill="#000000">entry / on_enter_transfer</text>
</g>
<!-- wait_01&#45;&gt;transfer -->
<g id="edge11" class="edge">
<title>wait_01&#45;&gt;transfer</title>
<path fill="none" stroke="#0000ff" d="M1407.2824,-244C1444.0367,-244 1486.8851,-244 1523.7015,-244"/>
<polygon fill="#0000ff" stroke="#0000ff" points="1523.9156,-247.5001 1533.9156,-244 1523.9155,-240.5001 1523.9156,-247.5001"/>
<text text-anchor="middle" x="1470.4964" y="-246.7" font-family="Arial" font-size="9.00" fill="#000000">progress</text>
</g>
<!-- transfer&#45;&gt;free -->
<g id="edge15" class="edge">
<title>transfer&#45;&gt;free</title>
<path fill="none" stroke="#0000ff" d="M1595.9199,-262.1241C1572.8411,-289.4395 1524.2527,-338 1470.4964,-338 1113.9327,-338 1113.9327,-338 1113.9327,-338 827.4984,-338 756.4556,-365 470.0213,-365 255.3541,-365 255.3541,-365 255.3541,-365 200.4966,-365 156.7722,-310.7156 133.8777,-274.8661"/>
<polygon fill="#0000ff" stroke="#0000ff" points="136.7497,-272.8557 128.5118,-266.1933 130.7969,-276.5388 136.7497,-272.8557"/>
<text text-anchor="middle" x="804.7681" y="-354.7" font-family="Arial" font-size="9.00" fill="#000000">force_to_free</text>
</g>
<!-- wait_02 -->
<g id="node7" class="node">
<title>wait_02</title>
<path fill="#ffffff" stroke="#000000" d="M2387.7247,-195C2387.7247,-195 2240.6687,-195 2240.6687,-195 2234.6687,-195 2228.6687,-189 2228.6687,-183 2228.6687,-183 2228.6687,-171 2228.6687,-171 2228.6687,-165 2234.6687,-159 2240.6687,-159 2240.6687,-159 2387.7247,-159 2387.7247,-159 2393.7247,-159 2399.7247,-165 2399.7247,-171 2399.7247,-171 2399.7247,-183 2399.7247,-183 2399.7247,-189 2393.7247,-195 2387.7247,-195"/>
<text text-anchor="middle" x="2314.1967" y="-180" font-family="Arial" font-size="10.00" fill="#000000">Waiting for 2am at center timezone</text>
<text text-anchor="middle" x="2314.1967" y="-168" font-family="Arial" font-size="10.00" fill="#000000">entry / on_enter_wait_02</text>
</g>
<!-- transfer&#45;&gt;wait_02 -->
<g id="edge13" class="edge">
<title>transfer&#45;&gt;wait_02</title>
<path fill="none" stroke="#0000ff" d="M1641.1029,-225.8686C1670.9154,-210.181 1717.7513,-190 1761.4077,-190 1761.4077,-190 1761.4077,-190 2157.9206,-190 2177.4843,-190 2198.3783,-188.9757 2218.3144,-187.5021"/>
<polygon fill="#0000ff" stroke="#0000ff" points="2218.6291,-190.9883 2228.3259,-186.7196 2218.0835,-184.0096 2218.6291,-190.9883"/>
<text text-anchor="middle" x="1961.9139" y="-192.7" font-family="Arial" font-size="9.00" fill="#000000">progress</text>
</g>
<!-- w_reco_trans -->
<g id="node11" class="node">
<title>w_reco_trans</title>
<path fill="#ffffff" stroke="#000000" d="M2075.4034,-262C2075.4034,-262 1848.4244,-262 1848.4244,-262 1842.4244,-262 1836.4244,-256 1836.4244,-250 1836.4244,-250 1836.4244,-238 1836.4244,-238 1836.4244,-232 1842.4244,-226 1848.4244,-226 1848.4244,-226 2075.4034,-226 2075.4034,-226 2081.4034,-226 2087.4034,-232 2087.4034,-238 2087.4034,-238 2087.4034,-250 2087.4034,-250 2087.4034,-256 2081.4034,-262 2075.4034,-262"/>
<text text-anchor="middle" x="1961.9139" y="-241" font-family="Arial" font-size="10.00" fill="#000000">Planning send failed, waiting for file transfer recovery</text>
</g>
<!-- transfer&#45;&gt;w_reco_trans -->
<g id="edge14" class="edge">
<title>transfer&#45;&gt;w_reco_trans</title>
<path fill="none" stroke="#0000ff" d="M1686.4192,-244C1727.3639,-244 1779.0392,-244 1826.5428,-244"/>
<polygon fill="#0000ff" stroke="#0000ff" points="1826.6109,-247.5001 1836.6109,-244 1826.6109,-240.5001 1826.6109,-247.5001"/>
<text text-anchor="middle" x="1761.4077" y="-246.7" font-family="Arial" font-size="9.00" fill="#000000">problem</text>
</g>
<!-- wait_02&#45;&gt;free -->
<g id="edge17" class="edge">
<title>wait_02&#45;&gt;free</title>
<path fill="none" stroke="#0000ff" d="M2236.7175,-158.9421C2211.7122,-154.5055 2183.7745,-151 2157.9206,-151 1704.646,-151 1704.646,-151 1704.646,-151 1155.3993,-151 1019.268,-97 470.0213,-97 255.3541,-97 255.3541,-97 255.3541,-97 192.1716,-97 149.1548,-169.5894 129.1622,-212.7492"/>
<polygon fill="#0000ff" stroke="#0000ff" points="125.9156,-211.4355 125.0224,-221.9926 132.3042,-214.2967 125.9156,-211.4355"/>
<text text-anchor="middle" x="1165.6962" y="-134.7" font-family="Arial" font-size="9.00" fill="#000000">force_to_free</text>
</g>
<!-- getting_prod -->
<g id="node8" class="node">
<title>getting_prod</title>
<path fill="#ffffff" stroke="#000000" d="M2713.9524,-170C2713.9524,-170 2520.6362,-170 2520.6362,-170 2514.6362,-170 2508.6362,-164 2508.6362,-158 2508.6362,-158 2508.6362,-146 2508.6362,-146 2508.6362,-140 2514.6362,-134 2520.6362,-134 2520.6362,-134 2713.9524,-134 2713.9524,-134 2719.9524,-134 2725.9524,-140 2725.9524,-146 2725.9524,-146 2725.9524,-158 2725.9524,-158 2725.9524,-164 2719.9524,-170 2713.9524,-170"/>
<text text-anchor="middle" x="2617.2943" y="-155" font-family="Arial" font-size="10.00" fill="#000000">Getting production version after center restart</text>
<text text-anchor="middle" x="2617.2943" y="-143" font-family="Arial" font-size="10.00" fill="#000000">entry / on_enter_getting_prod</text>
</g>
<!-- wait_02&#45;&gt;getting_prod -->
<g id="edge16" class="edge">
<title>wait_02&#45;&gt;getting_prod</title>
<path fill="none" stroke="#0000ff" d="M2399.837,-169.9362C2430.4556,-167.4108 2465.532,-164.5176 2498.4473,-161.8027"/>
<polygon fill="#0000ff" stroke="#0000ff" points="2498.9073,-165.2767 2508.5857,-160.9665 2498.3318,-158.3004 2498.9073,-165.2767"/>
<text text-anchor="middle" x="2454.213" y="-168.7" font-family="Arial" font-size="9.00" fill="#000000">progress</text>
</g>
<!-- getting_prod&#45;&gt;free -->
<g id="edge20" class="edge">
<title>getting_prod&#45;&gt;free</title>
<path fill="none" stroke="#0000ff" d="M2508.3289,-134.0536C2490.3019,-132.212 2471.7691,-131 2454.213,-131 1704.646,-131 1704.646,-131 1704.646,-131 1569.1324,-131 1230.8168,-109.9224 1095.4327,-104 817.479,-91.8408 748.2408,-77 470.0213,-77 255.3541,-77 255.3541,-77 255.3541,-77 185.8032,-77 144.3392,-163.6336 126.5833,-212.1047"/>
<polygon fill="#0000ff" stroke="#0000ff" points="123.1809,-211.2289 123.1527,-221.8237 129.7817,-213.5589 123.1809,-211.2289"/>
<text text-anchor="middle" x="1321.4738" y="-122.7" font-family="Arial" font-size="9.00" fill="#000000">force_to_free</text>
</g>
<!-- version_check -->
<g id="node9" class="node">
<title>version_check</title>
<path fill="#ffffff" stroke="#000000" d="M3387.7971,-161C3387.7971,-161 3255.8235,-161 3255.8235,-161 3249.8235,-161 3243.8235,-155 3243.8235,-149 3243.8235,-149 3243.8235,-137 3243.8235,-137 3243.8235,-131 3249.8235,-125 3255.8235,-125 3255.8235,-125 3387.7971,-125 3387.7971,-125 3393.7971,-125 3399.7971,-131 3399.7971,-137 3399.7971,-137 3399.7971,-149 3399.7971,-149 3399.7971,-155 3393.7971,-161 3387.7971,-161"/>
<text text-anchor="middle" x="3321.8103" y="-146" font-family="Arial" font-size="10.00" fill="#000000">Checking production version</text>
<text text-anchor="middle" x="3321.8103" y="-134" font-family="Arial" font-size="10.00" fill="#000000">entry / on_enter_version_check</text>
</g>
<!-- getting_prod&#45;&gt;version_check -->
<g id="edge18" class="edge">
<title>getting_prod&#45;&gt;version_check</title>
<path fill="none" stroke="#0000ff" d="M2726.0602,-144.2895C2743.7864,-143.511 2761.9594,-143 2779.1241,-143 2779.1241,-143 2779.1241,-143 3174.3042,-143 3193.4947,-143 3214.0896,-143 3233.6223,-143"/>
<polygon fill="#0000ff" stroke="#0000ff" points="3233.7268,-146.5001 3243.7268,-143 3233.7267,-139.5001 3233.7268,-146.5001"/>
<text text-anchor="middle" x="2968.458" y="-145.7" font-family="Arial" font-size="9.00" fill="#000000">progress</text>
</g>
<!-- w_reco_prod -->
<g id="node12" class="node">
<title>w_reco_prod</title>
<path fill="#ffffff" stroke="#000000" d="M3092.6241,-208C3092.6241,-208 2844.2919,-208 2844.2919,-208 2838.2919,-208 2832.2919,-202 2832.2919,-196 2832.2919,-196 2832.2919,-184 2832.2919,-184 2832.2919,-178 2838.2919,-172 2844.2919,-172 2844.2919,-172 3092.6241,-172 3092.6241,-172 3098.6241,-172 3104.6241,-178 3104.6241,-184 3104.6241,-184 3104.6241,-196 3104.6241,-196 3104.6241,-202 3098.6241,-208 3092.6241,-208"/>
<text text-anchor="middle" x="2968.458" y="-187" font-family="Arial" font-size="10.00" fill="#000000">getting prod version failed, waiting for production recovery</text>
</g>
<!-- getting_prod&#45;&gt;w_reco_prod -->
<g id="edge19" class="edge">
<title>getting_prod&#45;&gt;w_reco_prod</title>
<path fill="none" stroke="#0000ff" d="M2725.9998,-163.7632C2756.263,-167.038 2789.6425,-170.6501 2821.7036,-174.1195"/>
<polygon fill="#0000ff" stroke="#0000ff" points="2821.7426,-177.644 2832.0611,-175.2403 2822.4957,-170.6847 2821.7426,-177.644"/>
<text text-anchor="middle" x="2779.1241" y="-173.7" font-family="Arial" font-size="9.00" fill="#000000">problem</text>
</g>
<!-- version_check&#45;&gt;free -->
<g id="edge21" class="edge">
<title>version_check&#45;&gt;free</title>
<path fill="none" stroke="#0000ff" d="M3305.6054,-124.9895C3280.3284,-98.9835 3228.7386,-54 3174.3042,-54 1704.646,-54 1704.646,-54 1704.646,-54 1383.3166,-54 1303.1841,-37 981.8547,-37 255.3541,-37 255.3541,-37 255.3541,-37 229.5792,-37 218.8426,-35.1548 199.334,-52 150.8379,-93.8754 129.7787,-169.2404 121.3736,-212.0345"/>
<polygon fill="#0000ff" stroke="#0000ff" points="117.9227,-211.4486 119.5443,-221.9186 124.8058,-212.7225 117.9227,-211.4486"/>
<text text-anchor="middle" x="1610.0755" y="-56.7" font-family="Arial" font-size="9.00" fill="#000000">progress</text>
</g>
<!-- version_check&#45;&gt;free -->
<g id="edge23" class="edge">
<title>version_check&#45;&gt;free</title>
<path fill="none" stroke="#0000ff" d="M3281.3599,-124.9445C3252.2016,-113.561 3211.5813,-101 3174.3042,-101 1704.646,-101 1704.646,-101 1704.646,-101 1175.5662,-101 1044.1097,-57 515.0299,-57 255.3541,-57 255.3541,-57 255.3541,-57 178.9716,-57 139.6512,-158.7429 124.2757,-212.134"/>
<polygon fill="#0000ff" stroke="#0000ff" points="120.8908,-211.2431 121.5978,-221.8143 127.6374,-213.1095 120.8908,-211.2431"/>
<text text-anchor="middle" x="1610.0755" y="-102.7" font-family="Arial" font-size="9.00" fill="#000000">force_to_free</text>
</g>
<!-- w_reco_version -->
<g id="node13" class="node">
<title>w_reco_version</title>
<path fill="#ffffff" stroke="#000000" d="M3683.9305,-406C3683.9305,-406 3518.0965,-406 3518.0965,-406 3512.0965,-406 3506.0965,-400 3506.0965,-394 3506.0965,-394 3506.0965,-382 3506.0965,-382 3506.0965,-376 3512.0965,-370 3518.0965,-370 3518.0965,-370 3683.9305,-370 3683.9305,-370 3689.9305,-370 3695.9305,-376 3695.9305,-382 3695.9305,-382 3695.9305,-394 3695.9305,-394 3695.9305,-400 3689.9305,-406 3683.9305,-406"/>
<text text-anchor="middle" x="3601.0135" y="-385" font-family="Arial" font-size="10.00" fill="#000000">wrong_db_version, waiting for recovery</text>
</g>
<!-- version_check&#45;&gt;w_reco_version -->
<g id="edge22" class="edge">
<title>version_check&#45;&gt;w_reco_version</title>
<path fill="none" stroke="#0000ff" d="M3342.3408,-161.0154C3391.5537,-204.1996 3516.3314,-313.6917 3572.6565,-363.1168"/>
<polygon fill="#0000ff" stroke="#0000ff" points="3570.628,-365.9932 3580.4529,-369.9582 3575.2449,-360.7317 3570.628,-365.9932"/>
<text text-anchor="middle" x="3452.8042" y="-273.7" font-family="Arial" font-size="9.00" fill="#000000">problem</text>
</g>
<!-- w_reco_save&#45;&gt;free -->
<g id="edge25" class="edge">
<title>w_reco_save&#45;&gt;free</title>
<path fill="none" stroke="#0000ff" d="M946.9308,-171.973C911.933,-155.6024 856.0373,-134 804.7681,-134 560.0385,-134 560.0385,-134 560.0385,-134 407.6965,-134 359.7502,-104.3472 218.334,-161 189.153,-172.6902 161.8588,-195.8232 142.8666,-214.7042"/>
<polygon fill="#0000ff" stroke="#0000ff" points="140.2548,-212.3689 135.7572,-221.9617 145.2553,-217.2674 140.2548,-212.3689"/>
<text text-anchor="middle" x="515.0299" y="-135.7" font-family="Arial" font-size="9.00" fill="#000000">force_to_free</text>
</g>
<!-- w_reco_save&#45;&gt;wait_01 -->
<g id="edge24" class="edge">
<title>w_reco_save&#45;&gt;wait_01</title>
<path fill="none" stroke="#0000ff" d="M1095.4151,-208.0563C1137.7241,-214.7835 1185.2851,-222.3458 1225.8271,-228.792"/>
<polygon fill="#0000ff" stroke="#0000ff" points="1225.2799,-232.2489 1235.7054,-230.3627 1226.3791,-225.3357 1225.2799,-232.2489"/>
<text text-anchor="middle" x="1165.6962" y="-226.7" font-family="Arial" font-size="9.00" fill="#000000">reco_save_done</text>
</g>
<!-- w_reco_trans&#45;&gt;free -->
<g id="edge27" class="edge">
<title>w_reco_trans&#45;&gt;free</title>
<path fill="none" stroke="#0000ff" d="M1893.1771,-262.0885C1802.952,-285.0334 1639.3202,-323.9076 1497.005,-343 1171.7232,-386.6383 1087.9554,-385 759.7595,-385 255.3541,-385 255.3541,-385 255.3541,-385 194.128,-385 150.8152,-316.7364 130.1295,-275.205"/>
<polygon fill="#0000ff" stroke="#0000ff" points="133.2032,-273.521 125.7096,-266.0313 126.897,-276.5594 133.2032,-273.521"/>
<text text-anchor="middle" x="981.8547" y="-386.7" font-family="Arial" font-size="9.00" fill="#000000">force_to_free</text>
</g>
<!-- w_reco_trans&#45;&gt;wait_02 -->
<g id="edge26" class="edge">
<title>w_reco_trans&#45;&gt;wait_02</title>
<path fill="none" stroke="#0000ff" d="M2056.7826,-225.9571C2106.9343,-216.4188 2168.3444,-204.7394 2218.6038,-195.1806"/>
<polygon fill="#0000ff" stroke="#0000ff" points="2219.3304,-198.6053 2228.5003,-193.2984 2218.0224,-191.7285 2219.3304,-198.6053"/>
<text text-anchor="middle" x="2157.9206" y="-215.7" font-family="Arial" font-size="9.00" fill="#000000">reco_trans_done</text>
</g>
<!-- w_reco_prod&#45;&gt;free -->
<g id="edge29" class="edge">
<title>w_reco_prod&#45;&gt;free</title>
<path fill="none" stroke="#0000ff" d="M2958.5552,-208.1558C2934.1113,-250.2614 2866.4988,-351 2779.1241,-351 1818.1694,-351 1818.1694,-351 1818.1694,-351 1496.2454,-351 1417.0254,-384.3999 1095.4327,-399 986.3321,-403.9531 958.9897,-405 849.7767,-405 255.3541,-405 255.3541,-405 255.3541,-405 187.6131,-405 145.5861,-322.3226 127.2061,-275.462"/>
<polygon fill="#0000ff" stroke="#0000ff" points="130.4563,-274.1617 123.6422,-266.0488 123.9098,-276.6402 130.4563,-274.1617"/>
<text text-anchor="middle" x="1470.4964" y="-372.7" font-family="Arial" font-size="9.00" fill="#000000">force_to_free</text>
</g>
<!-- w_reco_prod&#45;&gt;version_check -->
<g id="edge28" class="edge">
<title>w_reco_prod&#45;&gt;version_check</title>
<path fill="none" stroke="#0000ff" d="M3103.8102,-171.9966C3147.4292,-166.1947 3194.6083,-159.9194 3233.8835,-154.6953"/>
<polygon fill="#0000ff" stroke="#0000ff" points="3234.5016,-158.144 3243.9528,-153.356 3233.5786,-151.2051 3234.5016,-158.144"/>
<text text-anchor="middle" x="3174.3042" y="-168.7" font-family="Arial" font-size="9.00" fill="#000000">reco_prod_done</text>
</g>
<!-- w_reco_version&#45;&gt;free -->
<g id="edge30" class="edge">
<title>w_reco_version&#45;&gt;free</title>
<path fill="none" stroke="#0000ff" d="M3505.7388,-388C3488.1373,-388 3469.9151,-388 3452.8042,-388 1818.1694,-388 1818.1694,-388 1818.1694,-388 1642.8712,-388 1600.786,-425 1425.4878,-425 255.3541,-425 255.3541,-425 255.3541,-425 181.068,-425 141.0409,-327.904 124.9389,-275.9425"/>
<polygon fill="#0000ff" stroke="#0000ff" points="128.2442,-274.7784 122.0345,-266.1942 121.5357,-276.7772 128.2442,-274.7784"/>
<text text-anchor="middle" x="1761.4077" y="-394.7" font-family="Arial" font-size="9.00" fill="#000000">reco_version_done</text>
</g>
<!-- w_reco_version&#45;&gt;free -->
<g id="edge31" class="edge">
<title>w_reco_version&#45;&gt;free</title>
<path fill="none" stroke="#0000ff" d="M3565.4668,-406.037C3536.0482,-419.2913 3492.7547,-435 3452.8042,-435 1818.1694,-435 1818.1694,-435 1818.1694,-435 1643.5877,-435 1600.0695,-445 1425.4878,-445 255.3541,-445 255.3541,-445 255.3541,-445 174.2758,-445 136.7949,-332.9886 123.0025,-276.2001"/>
<polygon fill="#0000ff" stroke="#0000ff" points="126.3698,-275.2271 120.6977,-266.2785 119.5513,-276.8111 126.3698,-275.2271"/>
<text text-anchor="middle" x="1761.4077" y="-438.7" font-family="Arial" font-size="9.00" fill="#000000">force_to_free</text>
</g>
</g>
</svg>
