<?xml version="1.0" encoding="UTF-8" standalone="no"?>
<!DOCTYPE svg PUBLIC "-//W3C//DTD SVG 1.1//EN"
 "http://www.w3.org/Graphics/SVG/1.1/DTD/svg11.dtd">
<!-- Generated by graphviz version 2.40.1 (20161225.0304)
 -->
<!-- Title: list Pages: 1 -->
<svg width="944pt" height="173pt"
 viewBox="0.00 0.00 943.61 172.80" xmlns="http://www.w3.org/2000/svg" xmlns:xlink="http://www.w3.org/1999/xlink">
<g id="graph0" class="graph" transform="scale(1 1) rotate(0) translate(4 168.8)">
<title>list</title>
<polygon fill="#ffffff" stroke="transparent" points="-4,4 -4,-168.8 939.6103,-168.8 939.6103,4 -4,4"/>
<text text-anchor="middle" x="467.8052" y="-7" font-family="Arial" font-size="10.00" fill="#000000">CenterState</text>
<!-- i -->
<g id="node1" class="node">
<title>i</title>
<ellipse fill="#000000" stroke="#000000" cx="7" cy="-101" rx="7" ry="7"/>
<text text-anchor="middle" x="7" y="-100.7" font-family="Times,serif" font-size="1.00" fill="#000000">i</text>
</g>
<!-- free -->
<g id="node2" class="node">
<title>free</title>
<path fill="#40e0d0" stroke="#000000" stroke-width="2" d="M93,-119C93,-119 63,-119 63,-119 57,-119 51,-113 51,-107 51,-107 51,-95 51,-95 51,-89 57,-83 63,-83 63,-83 93,-83 93,-83 99,-83 105,-89 105,-95 105,-95 105,-107 105,-107 105,-113 99,-119 93,-119"/>
<text text-anchor="middle" x="78" y="-98" font-family="Arial" font-size="10.00" fill="#000000">Free</text>
</g>
<!-- i&#45;&gt;free -->
<g id="edge1" class="edge">
<title>i&#45;&gt;free</title>
<path fill="none" stroke="#0000ff" d="M14.0673,-101C20.4861,-101 30.4839,-101 40.6823,-101"/>
<polygon fill="#0000ff" stroke="#0000ff" points="40.8224,-104.5001 50.8223,-101 40.8223,-97.5001 40.8224,-104.5001"/>
</g>
<!-- edit -->
<g id="node3" class="node">
<title>edit</title>
<path fill="#ffffff" stroke="#000000" d="M262.5276,-153C262.5276,-153 232.5276,-153 232.5276,-153 226.5276,-153 220.5276,-147 220.5276,-141 220.5276,-141 220.5276,-129 220.5276,-129 220.5276,-123 226.5276,-117 232.5276,-117 232.5276,-117 262.5276,-117 262.5276,-117 268.5276,-117 274.5276,-123 274.5276,-129 274.5276,-129 274.5276,-141 274.5276,-141 274.5276,-147 268.5276,-153 262.5276,-153"/>
<text text-anchor="middle" x="247.5276" y="-132" font-family="Arial" font-size="10.00" fill="#000000">Edit</text>
</g>
<!-- free&#45;&gt;edit -->
<g id="edge2" class="edge">
<title>free&#45;&gt;edit</title>
<path fill="none" stroke="#0000ff" d="M90.2435,-119.3683C98.2176,-129.5942 109.6127,-141.3684 123,-147 150.7484,-158.6728 184.9526,-154.1885 210.4883,-147.6207"/>
<polygon fill="#0000ff" stroke="#0000ff" points="211.4682,-150.9811 220.1637,-144.9281 209.5914,-144.2374 211.4682,-150.9811"/>
<text text-anchor="middle" x="162.7638" y="-156.7" font-family="Arial" font-size="9.00" fill="#000000">starts_editing</text>
</g>
<!-- edit&#45;&gt;free -->
<g id="edge3" class="edge">
<title>edit&#45;&gt;free</title>
<path fill="none" stroke="#0000ff" d="M220.1874,-130.8614C194.8679,-126.8653 156.2255,-120.3508 123,-113 120.3528,-112.4143 117.6271,-111.7762 114.8888,-111.1095"/>
<polygon fill="#0000ff" stroke="#0000ff" points="115.5888,-107.6763 105.0354,-108.6118 113.8688,-114.4617 115.5888,-107.6763"/>
<text text-anchor="middle" x="162.7638" y="-129.7" font-family="Arial" font-size="9.00" fill="#000000">abandon_changes</text>
</g>
<!-- edit&#45;&gt;free -->
<g id="edge4" class="edge">
<title>edit&#45;&gt;free</title>
<path fill="none" stroke="#0000ff" d="M229.4875,-116.6434C221.8522,-110.1317 212.4343,-103.5837 202.5276,-100.2 174.2961,-90.5573 140.319,-91.5422 114.9926,-94.4994"/>
<polygon fill="#0000ff" stroke="#0000ff" points="114.5105,-91.0325 105.0546,-95.8113 115.4267,-97.9723 114.5105,-91.0325"/>
<text text-anchor="middle" x="162.7638" y="-103.7" font-family="Arial" font-size="9.00" fill="#000000">change_timer_done</text>
</g>
<!-- wait00_trans -->
<g id="node4" class="node">
<title>wait00_trans</title>
<path fill="#ffffff" stroke="#000000" d="M435.7312,-153C435.7312,-153 387.493,-153 387.493,-153 381.493,-153 375.493,-147 375.493,-141 375.493,-141 375.493,-129 375.493,-129 375.493,-123 381.493,-117 387.493,-117 387.493,-117 435.7312,-117 435.7312,-117 441.7312,-117 447.7312,-123 447.7312,-129 447.7312,-129 447.7312,-141 447.7312,-141 447.7312,-147 441.7312,-153 435.7312,-153"/>
<text text-anchor="middle" x="411.6121" y="-132" font-family="Arial" font-size="10.00" fill="#000000">Wait00 trans</text>
</g>
<!-- edit&#45;&gt;wait00_trans -->
<g id="edge5" class="edge">
<title>edit&#45;&gt;wait00_trans</title>
<path fill="none" stroke="#0000ff" d="M274.6228,-135C299.213,-135 335.9914,-135 365.2504,-135"/>
<polygon fill="#0000ff" stroke="#0000ff" points="365.2537,-138.5001 375.2537,-135 365.2537,-131.5001 365.2537,-138.5001"/>
<text text-anchor="middle" x="325.0401" y="-137.7" font-family="Arial" font-size="9.00" fill="#000000">saving_changes</text>
</g>
<!-- wait03_prod -->
<g id="node5" class="node">
<title>wait03_prod</title>
<path fill="#ffffff" stroke="#000000" d="M774.9128,-109C774.9128,-109 729.1146,-109 729.1146,-109 723.1146,-109 717.1146,-103 717.1146,-97 717.1146,-97 717.1146,-85 717.1146,-85 717.1146,-79 723.1146,-73 729.1146,-73 729.1146,-73 774.9128,-73 774.9128,-73 780.9128,-73 786.9128,-79 786.9128,-85 786.9128,-85 786.9128,-97 786.9128,-97 786.9128,-103 780.9128,-109 774.9128,-109"/>
<text text-anchor="middle" x="752.0137" y="-88" font-family="Arial" font-size="10.00" fill="#000000">Wait03 prod</text>
</g>
<!-- wait00_trans&#45;&gt;wait03_prod -->
<g id="edge6" class="edge">
<title>wait00_trans&#45;&gt;wait03_prod</title>
<path fill="none" stroke="#0000ff" d="M447.8795,-141.1144C453.8092,-141.8987 459.8998,-142.5752 465.6716,-143 569.501,-150.641 602.2089,-161.1836 699.0642,-123 705.0972,-120.6216 711.2296,-117.5852 717.079,-114.3334"/>
<polygon fill="#0000ff" stroke="#0000ff" points="719.1287,-117.1888 725.983,-109.1099 715.5866,-111.1511 719.1287,-117.1888"/>
<text text-anchor="middle" x="581.3689" y="-152.7" font-family="Arial" font-size="9.00" fill="#000000">file_trans_done</text>
</g>
<!-- reco_trans -->
<g id="node6" class="node">
<title>reco_trans</title>
<path fill="#ffffff" stroke="#000000" d="M601.7118,-132C601.7118,-132 561.026,-132 561.026,-132 555.026,-132 549.026,-126 549.026,-120 549.026,-120 549.026,-108 549.026,-108 549.026,-102 555.026,-96 561.026,-96 561.026,-96 601.7118,-96 601.7118,-96 607.7118,-96 613.7118,-102 613.7118,-108 613.7118,-108 613.7118,-120 613.7118,-120 613.7118,-126 607.7118,-132 601.7118,-132"/>
<text text-anchor="middle" x="581.3689" y="-111" font-family="Arial" font-size="10.00" fill="#000000">Reco trans</text>
</g>
<!-- wait00_trans&#45;&gt;reco_trans -->
<g id="edge7" class="edge">
<title>wait00_trans&#45;&gt;reco_trans</title>
<path fill="none" stroke="#0000ff" d="M448.0292,-130.495C474.6361,-127.2035 510.7975,-122.7301 538.7497,-119.2723"/>
<polygon fill="#0000ff" stroke="#0000ff" points="539.5291,-122.7026 549.0237,-118.0013 538.6696,-115.7556 539.5291,-122.7026"/>
<text text-anchor="middle" x="498.4348" y="-130.7" font-family="Arial" font-size="9.00" fill="#000000">file_not_trans</text>
</g>
<!-- wait03_prod&#45;&gt;free -->
<g id="edge8" class="edge">
<title>wait03_prod&#45;&gt;free</title>
<path fill="none" stroke="#0000ff" d="M716.9031,-83.4689C682.533,-76.7612 628.601,-68 581.3689,-68 247.5276,-68 247.5276,-68 247.5276,-68 201.333,-68 149.3408,-79.9517 115.2595,-89.4698"/>
<polygon fill="#0000ff" stroke="#0000ff" points="113.932,-86.2093 105.2838,-92.3296 115.8611,-92.9382 113.932,-86.2093"/>
<text text-anchor="middle" x="411.6121" y="-70.7" font-family="Arial" font-size="9.00" fill="#000000">db_prod_done</text>
</g>
<!-- reco_prod -->
<g id="node7" class="node">
<title>reco_prod</title>
<path fill="#ffffff" stroke="#000000" d="M923.6714,-56C923.6714,-56 885.4272,-56 885.4272,-56 879.4272,-56 873.4272,-50 873.4272,-44 873.4272,-44 873.4272,-32 873.4272,-32 873.4272,-26 879.4272,-20 885.4272,-20 885.4272,-20 923.6714,-20 923.6714,-20 929.6714,-20 935.6714,-26 935.6714,-32 935.6714,-32 935.6714,-44 935.6714,-44 935.6714,-50 929.6714,-56 923.6714,-56"/>
<text text-anchor="middle" x="904.5493" y="-35" font-family="Arial" font-size="10.00" fill="#000000">Reco prod</text>
</g>
<!-- wait03_prod&#45;&gt;reco_prod -->
<g id="edge9" class="edge">
<title>wait03_prod&#45;&gt;reco_prod</title>
<path fill="none" stroke="#0000ff" d="M787.0084,-78.8407C809.8909,-70.89 839.8665,-60.4747 863.8191,-52.1521"/>
<polygon fill="#0000ff" stroke="#0000ff" points="865.0449,-55.4315 873.3422,-48.8432 862.7474,-48.8193 865.0449,-55.4315"/>
<text text-anchor="middle" x="830.2258" y="-75.7" font-family="Arial" font-size="9.00" fill="#000000">db_not_prod</text>
</g>
<!-- reco_trans&#45;&gt;wait03_prod -->
<g id="edge10" class="edge">
<title>reco_trans&#45;&gt;wait03_prod</title>
<path fill="none" stroke="#0000ff" d="M613.8675,-109.6197C640.2507,-106.0637 677.7434,-101.0104 707.014,-97.0652"/>
<polygon fill="#0000ff" stroke="#0000ff" points="707.55,-100.5247 716.9928,-95.7202 706.6149,-93.5874 707.55,-100.5247"/>
<text text-anchor="middle" x="665.3021" y="-110.7" font-family="Arial" font-size="9.00" fill="#000000">reco_trans_done</text>
</g>
<!-- reco_prod&#45;&gt;free -->
<g id="edge11" class="edge">
<title>reco_prod&#45;&gt;free</title>
<path fill="none" stroke="#0000ff" d="M873.3909,-32.8053C842.6336,-28.1334 794.2178,-22 752.0137,-22 247.5276,-22 247.5276,-22 247.5276,-22 194.9181,-22 140.9957,-53.6441 108.4954,-76.8774"/>
<polygon fill="#0000ff" stroke="#0000ff" points="106.3082,-74.141 100.312,-82.8758 110.4466,-79.7868 106.3082,-74.141"/>
<text text-anchor="middle" x="498.4348" y="-24.7" font-family="Arial" font-size="9.00" fill="#000000">reco_prod_done</text>
</g>
</g>
</svg>
