<?xml version="1.0" encoding="UTF-8" standalone="no"?>
<!DOCTYPE svg PUBLIC "-//W3C//DTD SVG 1.1//EN"
 "http://www.w3.org/Graphics/SVG/1.1/DTD/svg11.dtd">
<!-- Generated by graphviz version 2.40.1 (20161225.0304)
 -->
<!-- Title: CenterState Pages: 1 -->
<svg width="3048pt" height="383pt"
 viewBox="0.00 0.00 3048.04 383.00" xmlns="http://www.w3.org/2000/svg" xmlns:xlink="http://www.w3.org/1999/xlink">
<g id="graph0" class="graph" transform="scale(1 1) rotate(0) translate(4 379)">
<title>CenterState</title>
<polygon fill="#ffffff" stroke="transparent" points="-4,4 -4,-379 3044.0436,-379 3044.0436,4 -4,4"/>
<text text-anchor="middle" x="1520.0218" y="-7" font-family="Arial" font-size="10.00" fill="#000000">CenterState</text>
<g id="clust2" class="cluster">
<title>cluster_centerstate_anchor_atomic</title>
</g>
<!-- centerstate_anchor -->
<g id="node1" class="node">
<title>centerstate_anchor</title>
<ellipse fill="#000000" stroke="#000000" cx="7.2" cy="-201" rx="7.2" ry="7.2"/>
</g>
<!-- free -->
<g id="node2" class="node">
<title>free</title>
<path fill="#40e0d0" stroke="#000000" stroke-width="2" d="M169.301,-219C169.301,-219 63.433,-219 63.433,-219 57.433,-219 51.433,-213 51.433,-207 51.433,-207 51.433,-195 51.433,-195 51.433,-189 57.433,-183 63.433,-183 63.433,-183 169.301,-183 169.301,-183 175.301,-183 181.301,-189 181.301,-195 181.301,-195 181.301,-207 181.301,-207 181.301,-213 175.301,-219 169.301,-219"/>
<text text-anchor="middle" x="116.367" y="-204" font-family="Arial" font-size="10.00" fill="#000000">Planning free to be edited</text>
<text text-anchor="middle" x="116.367" y="-192" font-family="Arial" font-size="10.00" fill="#000000">exit / on_exit_free</text>
</g>
<!-- centerstate_anchor&#45;&gt;free -->
<g id="edge1" class="edge">
<title>centerstate_anchor&#45;&gt;free</title>
<path fill="none" stroke="#0000ff" d="M14.7035,-201C20.8996,-201 30.3987,-201 41.1501,-201"/>
<polygon fill="#0000ff" stroke="#0000ff" points="41.3172,-204.5001 51.3172,-201 41.3172,-197.5001 41.3172,-204.5001"/>
</g>
<!-- free&#45;&gt;free -->
<g id="edge3" class="edge">
<title>free&#45;&gt;free</title>
<path fill="none" stroke="#0000ff" d="M101.5325,-219.1527C99.2503,-228.5391 104.1951,-237 116.367,-237 123.7842,-237 128.5178,-233.8581 130.5677,-229.2796"/>
<polygon fill="#0000ff" stroke="#0000ff" points="134.0699,-229.3518 131.2015,-219.1527 127.0836,-228.9145 134.0699,-229.3518"/>
<text text-anchor="middle" x="116.367" y="-239.7" font-family="Arial" font-size="9.00" fill="#000000">force_to_free</text>
</g>
<!-- edit -->
<g id="node3" class="node">
<title>edit</title>
<path fill="#ffffff" stroke="#000000" d="M439.5949,-219C439.5949,-219 341.3007,-219 341.3007,-219 335.3007,-219 329.3007,-213 329.3007,-207 329.3007,-207 329.3007,-195 329.3007,-195 329.3007,-189 335.3007,-183 341.3007,-183 341.3007,-183 439.5949,-183 439.5949,-183 445.5949,-183 451.5949,-189 451.5949,-195 451.5949,-195 451.5949,-207 451.5949,-207 451.5949,-213 445.5949,-219 439.5949,-219"/>
<text text-anchor="middle" x="390.4478" y="-198" font-family="Arial" font-size="10.00" fill="#000000">Planning is being edited</text>
</g>
<!-- free&#45;&gt;edit -->
<g id="edge2" class="edge">
<title>free&#45;&gt;edit</title>
<path fill="none" stroke="#0000ff" d="M181.4858,-212.0251C193.6952,-213.681 206.3776,-215.1253 218.334,-216 251.1531,-218.401 259.5622,-218.4947 292.3743,-216 301.047,-215.3406 310.1142,-214.3577 319.0827,-213.2046"/>
<polygon fill="#0000ff" stroke="#0000ff" points="319.7024,-216.6527 329.1403,-211.8386 318.7602,-209.7164 319.7024,-216.6527"/>
<text text-anchor="middle" x="255.3541" y="-219.7" font-family="Arial" font-size="9.00" fill="#000000">progress</text>
</g>
<!-- edit&#45;&gt;free -->
<g id="edge5" class="edge">
<title>edit&#45;&gt;free</title>
<path fill="none" stroke="#0000ff" d="M346.2982,-182.8662C329.6899,-176.9472 310.4491,-171.1424 292.3743,-168.2 259.895,-162.9127 250.8432,-163.1 218.334,-168.2 202.8871,-170.6233 186.5873,-174.9931 171.6612,-179.7693"/>
<polygon fill="#0000ff" stroke="#0000ff" points="170.4628,-176.4792 162.0738,-182.9503 172.6672,-183.1231 170.4628,-176.4792"/>
<text text-anchor="middle" x="255.3541" y="-170.7" font-family="Arial" font-size="9.00" fill="#000000">abandon_changes</text>
</g>
<!-- edit&#45;&gt;free -->
<g id="edge6" class="edge">
<title>edit&#45;&gt;free</title>
<path fill="none" stroke="#0000ff" d="M329.2506,-201C288.5489,-201 234.8179,-201 191.5204,-201"/>
<polygon fill="#0000ff" stroke="#0000ff" points="191.3204,-197.5001 181.3203,-201 191.3203,-204.5001 191.3204,-197.5001"/>
<text text-anchor="middle" x="255.3541" y="-203.7" font-family="Arial" font-size="9.00" fill="#000000">force_to_free</text>
</g>
<!-- wait_01 -->
<g id="node4" class="node">
<title>wait_01</title>
<path fill="#ffffff" stroke="#000000" d="M737.5805,-219C737.5805,-219 590.5245,-219 590.5245,-219 584.5245,-219 578.5245,-213 578.5245,-207 578.5245,-207 578.5245,-195 578.5245,-195 578.5245,-189 584.5245,-183 590.5245,-183 590.5245,-183 737.5805,-183 737.5805,-183 743.5805,-183 749.5805,-189 749.5805,-195 749.5805,-195 749.5805,-207 749.5805,-207 749.5805,-213 743.5805,-219 737.5805,-219"/>
<text text-anchor="middle" x="664.0525" y="-204" font-family="Arial" font-size="10.00" fill="#000000">Waiting for 1am at center timezone</text>
<text text-anchor="middle" x="664.0525" y="-192" font-family="Arial" font-size="10.00" fill="#000000">entry / on_enter_wait_01</text>
</g>
<!-- edit&#45;&gt;wait_01 -->
<g id="edge4" class="edge">
<title>edit&#45;&gt;wait_01</title>
<path fill="none" stroke="#0000ff" d="M451.85,-201C486.1273,-201 529.5889,-201 568.2407,-201"/>
<polygon fill="#0000ff" stroke="#0000ff" points="568.4775,-204.5001 578.4775,-201 568.4774,-197.5001 568.4775,-204.5001"/>
<text text-anchor="middle" x="515.0299" y="-203.7" font-family="Arial" font-size="9.00" fill="#000000">progress</text>
</g>
<!-- wait_01&#45;&gt;free -->
<g id="edge8" class="edge">
<title>wait_01&#45;&gt;free</title>
<path fill="none" stroke="#0000ff" d="M593.6947,-182.9868C505.4358,-163.0302 349.7248,-136.5663 218.334,-160 198.6816,-163.505 178.0613,-170.9933 160.5468,-178.6235"/>
<polygon fill="#0000ff" stroke="#0000ff" points="158.8409,-175.5532 151.1619,-182.8527 161.7169,-181.9351 158.8409,-175.5532"/>
<text text-anchor="middle" x="390.4478" y="-160.7" font-family="Arial" font-size="9.00" fill="#000000">force_to_free</text>
</g>
<!-- transfer -->
<g id="node5" class="node">
<title>transfer</title>
<path fill="#ffffff" stroke="#000000" d="M1016.7953,-235C1016.7953,-235 888.5131,-235 888.5131,-235 882.5131,-235 876.5131,-229 876.5131,-223 876.5131,-223 876.5131,-211 876.5131,-211 876.5131,-205 882.5131,-199 888.5131,-199 888.5131,-199 1016.7953,-199 1016.7953,-199 1022.7953,-199 1028.7953,-205 1028.7953,-211 1028.7953,-211 1028.7953,-223 1028.7953,-223 1028.7953,-229 1022.7953,-235 1016.7953,-235"/>
<text text-anchor="middle" x="952.6542" y="-220" font-family="Arial" font-size="10.00" fill="#000000">Transferring planning to center</text>
<text text-anchor="middle" x="952.6542" y="-208" font-family="Arial" font-size="10.00" fill="#000000">entry / on_enter_transfer</text>
</g>
<!-- wait_01&#45;&gt;transfer -->
<g id="edge7" class="edge">
<title>wait_01&#45;&gt;transfer</title>
<path fill="none" stroke="#0000ff" d="M749.8611,-205.7572C786.6154,-207.7949 829.4638,-210.1704 866.2802,-212.2114"/>
<polygon fill="#0000ff" stroke="#0000ff" points="866.3158,-215.7187 876.4943,-212.7777 866.7034,-208.7294 866.3158,-215.7187"/>
<text text-anchor="middle" x="813.0751" y="-212.7" font-family="Arial" font-size="9.00" fill="#000000">progress</text>
</g>
<!-- transfer&#45;&gt;free -->
<g id="edge11" class="edge">
<title>transfer&#45;&gt;free</title>
<path fill="none" stroke="#0000ff" d="M876.3466,-222.7886C864.0588,-223.6085 851.4736,-224.3815 839.5837,-225 799.6079,-227.0796 789.5875,-227.1582 749.5665,-228 546.4071,-232.2734 495.5767,-231.1111 292.3743,-232 259.4678,-232.1439 250.8831,-236.8385 218.334,-232 204.1224,-229.8874 189.1506,-226.2042 175.1873,-222.0975"/>
<polygon fill="#0000ff" stroke="#0000ff" points="175.8098,-218.6279 165.2233,-219.0488 173.7617,-225.3216 175.8098,-218.6279"/>
<text text-anchor="middle" x="515.0299" y="-233.7" font-family="Arial" font-size="9.00" fill="#000000">force_to_free</text>
</g>
<!-- wait_02 -->
<g id="node6" class="node">
<title>wait_02</title>
<path fill="#ffffff" stroke="#000000" d="M1715.7963,-197C1715.7963,-197 1568.7403,-197 1568.7403,-197 1562.7403,-197 1556.7403,-191 1556.7403,-185 1556.7403,-185 1556.7403,-173 1556.7403,-173 1556.7403,-167 1562.7403,-161 1568.7403,-161 1568.7403,-161 1715.7963,-161 1715.7963,-161 1721.7963,-161 1727.7963,-167 1727.7963,-173 1727.7963,-173 1727.7963,-185 1727.7963,-185 1727.7963,-191 1721.7963,-197 1715.7963,-197"/>
<text text-anchor="middle" x="1642.2683" y="-182" font-family="Arial" font-size="10.00" fill="#000000">Waiting for 2am at center timezone</text>
<text text-anchor="middle" x="1642.2683" y="-170" font-family="Arial" font-size="10.00" fill="#000000">entry / on_enter_wait_02</text>
</g>
<!-- transfer&#45;&gt;wait_02 -->
<g id="edge9" class="edge">
<title>transfer&#45;&gt;wait_02</title>
<path fill="none" stroke="#0000ff" d="M1012.5508,-198.9637C1037.0219,-193.0662 1065.7508,-188 1092.2333,-188 1092.2333,-188 1092.2333,-188 1481.4926,-188 1502.4892,-188 1525.0041,-187.2253 1546.3393,-186.1306"/>
<polygon fill="#0000ff" stroke="#0000ff" points="1546.5799,-189.6228 1556.3764,-185.5882 1546.202,-182.633 1546.5799,-189.6228"/>
<text text-anchor="middle" x="1280.9864" y="-190.7" font-family="Arial" font-size="9.00" fill="#000000">progress</text>
</g>
<!-- w_reco_trans -->
<g id="node9" class="node">
<title>w_reco_trans</title>
<path fill="#ffffff" stroke="#000000" d="M1394.4759,-253C1394.4759,-253 1167.4969,-253 1167.4969,-253 1161.4969,-253 1155.4969,-247 1155.4969,-241 1155.4969,-241 1155.4969,-229 1155.4969,-229 1155.4969,-223 1161.4969,-217 1167.4969,-217 1167.4969,-217 1394.4759,-217 1394.4759,-217 1400.4759,-217 1406.4759,-223 1406.4759,-229 1406.4759,-229 1406.4759,-241 1406.4759,-241 1406.4759,-247 1400.4759,-253 1394.4759,-253"/>
<text text-anchor="middle" x="1280.9864" y="-232" font-family="Arial" font-size="10.00" fill="#000000">Planning send failed, waiting for file transfer recovery</text>
</g>
<!-- transfer&#45;&gt;w_reco_trans -->
<g id="edge10" class="edge">
<title>transfer&#45;&gt;w_reco_trans</title>
<path fill="none" stroke="#0000ff" d="M1028.8055,-221.1748C1063.4713,-223.0753 1105.571,-225.3833 1145.3625,-227.5648"/>
<polygon fill="#0000ff" stroke="#0000ff" points="1145.2467,-231.0636 1155.4234,-228.1163 1145.63,-224.0741 1145.2467,-231.0636"/>
<text text-anchor="middle" x="1092.2333" y="-228.7" font-family="Arial" font-size="9.00" fill="#000000">problem</text>
</g>
<!-- wait_02&#45;&gt;free -->
<g id="edge13" class="edge">
<title>wait_02&#45;&gt;free</title>
<path fill="none" stroke="#0000ff" d="M1556.531,-173.5734C1511.7583,-170.918 1456.0595,-167.8936 1406.2309,-166 982.1285,-149.8835 875.9065,-150.4447 451.5213,-146 449.1804,-145.9755 225.6178,-145.1555 218.334,-147 194.3616,-153.0706 169.798,-165.8436 150.7878,-177.4432"/>
<polygon fill="#0000ff" stroke="#0000ff" points="148.8072,-174.554 142.1981,-182.8347 152.5286,-180.4828 148.8072,-174.554"/>
<text text-anchor="middle" x="813.0751" y="-152.7" font-family="Arial" font-size="9.00" fill="#000000">force_to_free</text>
</g>
<!-- getting_prod -->
<g id="node7" class="node">
<title>getting_prod</title>
<path fill="#ffffff" stroke="#000000" d="M2042.024,-195C2042.024,-195 1848.7078,-195 1848.7078,-195 1842.7078,-195 1836.7078,-189 1836.7078,-183 1836.7078,-183 1836.7078,-171 1836.7078,-171 1836.7078,-165 1842.7078,-159 1848.7078,-159 1848.7078,-159 2042.024,-159 2042.024,-159 2048.024,-159 2054.024,-165 2054.024,-171 2054.024,-171 2054.024,-183 2054.024,-183 2054.024,-189 2048.024,-195 2042.024,-195"/>
<text text-anchor="middle" x="1945.3659" y="-180" font-family="Arial" font-size="10.00" fill="#000000">Getting production version after center restart</text>
<text text-anchor="middle" x="1945.3659" y="-168" font-family="Arial" font-size="10.00" fill="#000000">entry / on_enter_getting_prod</text>
</g>
<!-- wait_02&#45;&gt;getting_prod -->
<g id="edge12" class="edge">
<title>wait_02&#45;&gt;getting_prod</title>
<path fill="none" stroke="#0000ff" d="M1727.9086,-178.4349C1758.5272,-178.2329 1793.6036,-178.0014 1826.5189,-177.7842"/>
<polygon fill="#0000ff" stroke="#0000ff" points="1826.6806,-181.2833 1836.6573,-177.7173 1826.6344,-174.2835 1826.6806,-181.2833"/>
<text text-anchor="middle" x="1782.2846" y="-180.7" font-family="Arial" font-size="9.00" fill="#000000">progress</text>
</g>
<!-- getting_prod&#45;&gt;free -->
<g id="edge16" class="edge">
<title>getting_prod&#45;&gt;free</title>
<path fill="none" stroke="#0000ff" d="M1905.0344,-158.9516C1872.5596,-146.0644 1825.3812,-131 1782.2846,-131 1424.7309,-131 1424.7309,-131 1424.7309,-131 888.5361,-131 745.7792,-44.5302 218.334,-141 191.2296,-145.9574 164.532,-162.1949 145.2576,-176.5293"/>
<polygon fill="#0000ff" stroke="#0000ff" points="142.999,-173.8511 137.2112,-182.7253 147.2698,-179.3973 142.999,-173.8511"/>
<text text-anchor="middle" x="952.6542" y="-116.7" font-family="Arial" font-size="9.00" fill="#000000">force_to_free</text>
</g>
<!-- version_check -->
<g id="node8" class="node">
<title>version_check</title>
<path fill="#ffffff" stroke="#000000" d="M2715.8687,-174C2715.8687,-174 2583.8951,-174 2583.8951,-174 2577.8951,-174 2571.8951,-168 2571.8951,-162 2571.8951,-162 2571.8951,-150 2571.8951,-150 2571.8951,-144 2577.8951,-138 2583.8951,-138 2583.8951,-138 2715.8687,-138 2715.8687,-138 2721.8687,-138 2727.8687,-144 2727.8687,-150 2727.8687,-150 2727.8687,-162 2727.8687,-162 2727.8687,-168 2721.8687,-174 2715.8687,-174"/>
<text text-anchor="middle" x="2649.8819" y="-159" font-family="Arial" font-size="10.00" fill="#000000">Checking production version</text>
<text text-anchor="middle" x="2649.8819" y="-147" font-family="Arial" font-size="10.00" fill="#000000">entry / on_enter_version_check</text>
</g>
<!-- getting_prod&#45;&gt;version_check -->
<g id="edge14" class="edge">
<title>getting_prod&#45;&gt;version_check</title>
<path fill="none" stroke="#0000ff" d="M2054.3644,-158.9642C2071.9783,-157.1729 2090.0555,-156 2107.1958,-156 2107.1958,-156 2107.1958,-156 2502.3758,-156 2521.5663,-156 2542.1612,-156 2561.6939,-156"/>
<polygon fill="#0000ff" stroke="#0000ff" points="2561.7984,-159.5001 2571.7984,-156 2561.7983,-152.5001 2561.7984,-159.5001"/>
<text text-anchor="middle" x="2296.5296" y="-158.7" font-family="Arial" font-size="9.00" fill="#000000">progress</text>
</g>
<!-- w_reco_prod -->
<g id="node10" class="node">
<title>w_reco_prod</title>
<path fill="#ffffff" stroke="#000000" d="M2420.6957,-221C2420.6957,-221 2172.3635,-221 2172.3635,-221 2166.3635,-221 2160.3635,-215 2160.3635,-209 2160.3635,-209 2160.3635,-197 2160.3635,-197 2160.3635,-191 2166.3635,-185 2172.3635,-185 2172.3635,-185 2420.6957,-185 2420.6957,-185 2426.6957,-185 2432.6957,-191 2432.6957,-197 2432.6957,-197 2432.6957,-209 2432.6957,-209 2432.6957,-215 2426.6957,-221 2420.6957,-221"/>
<text text-anchor="middle" x="2296.5296" y="-200" font-family="Arial" font-size="10.00" fill="#000000">getting prod version failed, waiting for production recovery</text>
</g>
<!-- getting_prod&#45;&gt;w_reco_prod -->
<g id="edge15" class="edge">
<title>getting_prod&#45;&gt;w_reco_prod</title>
<path fill="none" stroke="#0000ff" d="M2054.0714,-185.0485C2084.3346,-187.2892 2117.7141,-189.7606 2149.7752,-192.1344"/>
<polygon fill="#0000ff" stroke="#0000ff" points="2149.9016,-195.6532 2160.1327,-192.9012 2150.4185,-188.6723 2149.9016,-195.6532"/>
<text text-anchor="middle" x="2107.1958" y="-192.7" font-family="Arial" font-size="9.00" fill="#000000">problem</text>
</g>
<!-- version_check&#45;&gt;free -->
<g id="edge17" class="edge">
<title>version_check&#45;&gt;free</title>
<path fill="none" stroke="#0000ff" d="M2636.1998,-137.7644C2612.4683,-108.4256 2560.5983,-54 2502.3758,-54 1137.2419,-54 1137.2419,-54 1137.2419,-54 840.6032,-54 766.66,-37 470.0213,-37 255.3541,-37 255.3541,-37 255.3541,-37 229.5792,-37 219.6616,-36.1527 199.334,-52 159.339,-83.18 135.7224,-139.337 124.4715,-173.0906"/>
<polygon fill="#0000ff" stroke="#0000ff" points="121.0808,-172.2034 121.3724,-182.7942 127.749,-174.3331 121.0808,-172.2034"/>
<text text-anchor="middle" x="1280.9864" y="-56.7" font-family="Arial" font-size="9.00" fill="#000000">progress</text>
</g>
<!-- version_check&#45;&gt;free -->
<g id="edge19" class="edge">
<title>version_check&#45;&gt;free</title>
<path fill="none" stroke="#0000ff" d="M2620.5677,-137.9909C2591.6258,-121.9506 2545.5587,-101 2502.3758,-101 1424.7309,-101 1424.7309,-101 1424.7309,-101 1019.9467,-101 919.8141,-57 515.0299,-57 255.3541,-57 255.3541,-57 255.3541,-57 191.3425,-57 147.4819,-131.5771 127.9203,-173.3924"/>
<polygon fill="#0000ff" stroke="#0000ff" points="124.6148,-172.2082 123.6863,-182.7623 130.9937,-175.0908 124.6148,-172.2082"/>
<text text-anchor="middle" x="1280.9864" y="-102.7" font-family="Arial" font-size="9.00" fill="#000000">force_to_free</text>
</g>
<!-- w_reco_version -->
<g id="node11" class="node">
<title>w_reco_version</title>
<path fill="#ffffff" stroke="#000000" d="M3012.0021,-319C3012.0021,-319 2846.1681,-319 2846.1681,-319 2840.1681,-319 2834.1681,-313 2834.1681,-307 2834.1681,-307 2834.1681,-295 2834.1681,-295 2834.1681,-289 2840.1681,-283 2846.1681,-283 2846.1681,-283 3012.0021,-283 3012.0021,-283 3018.0021,-283 3024.0021,-289 3024.0021,-295 3024.0021,-295 3024.0021,-307 3024.0021,-307 3024.0021,-313 3018.0021,-319 3012.0021,-319"/>
<text text-anchor="middle" x="2929.0851" y="-298" font-family="Arial" font-size="10.00" fill="#000000">wrong_db_version, waiting for recovery</text>
</g>
<!-- version_check&#45;&gt;w_reco_version -->
<g id="edge18" class="edge">
<title>version_check&#45;&gt;w_reco_version</title>
<path fill="none" stroke="#0000ff" d="M2684.6787,-174.0712C2735.4984,-200.4637 2829.9856,-249.5342 2885.4104,-278.3182"/>
<polygon fill="#0000ff" stroke="#0000ff" points="2883.8017,-281.4266 2894.2894,-282.9294 2887.028,-275.2144 2883.8017,-281.4266"/>
<text text-anchor="middle" x="2780.8758" y="-234.7" font-family="Arial" font-size="9.00" fill="#000000">problem</text>
</g>
<!-- w_reco_trans&#45;&gt;free -->
<g id="edge21" class="edge">
<title>w_reco_trans&#45;&gt;free</title>
<path fill="none" stroke="#0000ff" d="M1155.5843,-240.3131C1115.1023,-241.8036 1070.0209,-243.2273 1028.7247,-244 668.6042,-250.7386 574.8173,-289.4956 218.334,-238 200.1046,-235.3667 180.921,-229.3449 164.1731,-222.9081"/>
<polygon fill="#0000ff" stroke="#0000ff" points="165.2041,-219.5512 154.6192,-219.0928 162.608,-226.052 165.2041,-219.5512"/>
<text text-anchor="middle" x="664.0525" y="-266.7" font-family="Arial" font-size="9.00" fill="#000000">force_to_free</text>
</g>
<!-- w_reco_trans&#45;&gt;wait_02 -->
<g id="edge20" class="edge">
<title>w_reco_trans&#45;&gt;wait_02</title>
<path fill="none" stroke="#0000ff" d="M1397.2869,-216.973C1445.5233,-209.4962 1500.8003,-200.928 1546.6249,-193.8251"/>
<polygon fill="#0000ff" stroke="#0000ff" points="1547.2071,-197.2767 1556.5529,-192.2862 1546.1348,-190.3593 1547.2071,-197.2767"/>
<text text-anchor="middle" x="1481.4926" y="-211.7" font-family="Arial" font-size="9.00" fill="#000000">reco_trans_done</text>
</g>
<!-- w_reco_prod&#45;&gt;free -->
<g id="edge23" class="edge">
<title>w_reco_prod&#45;&gt;free</title>
<path fill="none" stroke="#0000ff" d="M2262.3512,-221.1369C2225.2292,-239.118 2163.6594,-264 2107.1958,-264 1538.2543,-264 1538.2543,-264 1538.2543,-264 1102.8298,-264 995.463,-318 560.0385,-318 255.3541,-318 255.3541,-318 255.3541,-318 199.6182,-318 154.6044,-262.2528 132.0671,-227.7196"/>
<polygon fill="#0000ff" stroke="#0000ff" points="134.8732,-225.6082 126.572,-219.0248 128.9559,-229.348 134.8732,-225.6082"/>
<text text-anchor="middle" x="1092.2333" y="-291.7" font-family="Arial" font-size="9.00" fill="#000000">force_to_free</text>
</g>
<!-- w_reco_prod&#45;&gt;version_check -->
<g id="edge22" class="edge">
<title>w_reco_prod&#45;&gt;version_check</title>
<path fill="none" stroke="#0000ff" d="M2431.8818,-184.9966C2475.5008,-179.1947 2522.6799,-172.9194 2561.9551,-167.6953"/>
<polygon fill="#0000ff" stroke="#0000ff" points="2562.5732,-171.144 2572.0244,-166.356 2561.6502,-164.2051 2562.5732,-171.144"/>
<text text-anchor="middle" x="2502.3758" y="-181.7" font-family="Arial" font-size="9.00" fill="#000000">reco_prod_done</text>
</g>
<!-- w_reco_version&#45;&gt;free -->
<g id="edge24" class="edge">
<title>w_reco_version&#45;&gt;free</title>
<path fill="none" stroke="#0000ff" d="M2833.8104,-301C2816.2089,-301 2797.9867,-301 2780.8758,-301 1538.2543,-301 1538.2543,-301 1538.2543,-301 1319.4002,-301 1266.0788,-338 1047.2247,-338 255.3541,-338 255.3541,-338 255.3541,-338 193.4046,-338 149.0471,-268.1138 128.7538,-228.1704"/>
<polygon fill="#0000ff" stroke="#0000ff" points="131.8931,-226.6228 124.3405,-219.1925 125.6111,-229.7109 131.8931,-226.6228"/>
<text text-anchor="middle" x="1481.4926" y="-305.7" font-family="Arial" font-size="9.00" fill="#000000">reco_version_done</text>
</g>
<!-- w_reco_version&#45;&gt;free -->
<g id="edge25" class="edge">
<title>w_reco_version&#45;&gt;free</title>
<path fill="none" stroke="#0000ff" d="M2893.5384,-319.037C2864.1198,-332.2913 2820.8263,-348 2780.8758,-348 1538.2543,-348 1538.2543,-348 1538.2543,-348 1319.9737,-348 1265.5053,-358 1047.2247,-358 255.3541,-358 255.3541,-358 255.3541,-358 186.9903,-358 144.1326,-273.5117 126.1488,-228.4933"/>
<polygon fill="#0000ff" stroke="#0000ff" points="129.3562,-227.0829 122.495,-219.0099 122.8243,-229.5996 129.3562,-227.0829"/>
<text text-anchor="middle" x="1481.4926" y="-350.7" font-family="Arial" font-size="9.00" fill="#000000">force_to_free</text>
</g>
</g>
</svg>
