<?xml version="1.0" encoding="UTF-8" standalone="no"?>
<!DOCTYPE svg PUBLIC "-//W3C//DTD SVG 1.1//EN"
 "http://www.w3.org/Graphics/SVG/1.1/DTD/svg11.dtd">
<!-- Generated by graphviz version 2.40.1 (20161225.0304)
 -->
<!-- Title: CenterState Pages: 1 -->
<svg width="1887pt" height="343pt"
 viewBox="0.00 0.00 1886.61 343.00" xmlns="http://www.w3.org/2000/svg" xmlns:xlink="http://www.w3.org/1999/xlink">
<g id="graph0" class="graph" transform="scale(1 1) rotate(0) translate(4 339)">
<title>CenterState</title>
<polygon fill="#ffffff" stroke="transparent" points="-4,4 -4,-339 1882.6078,-339 1882.6078,4 -4,4"/>
<text text-anchor="middle" x="939.3039" y="-7" font-family="Arial" font-size="10.00" fill="#000000">CenterState</text>
<g id="clust2" class="cluster">
<title>cluster_centerstate_anchor_atomic</title>
</g>
<!-- centerstate_anchor -->
<g id="node1" class="node">
<title>centerstate_anchor</title>
<ellipse fill="#000000" stroke="#000000" cx="7.2" cy="-181" rx="7.2" ry="7.2"/>
</g>
<!-- free -->
<g id="node2" class="node">
<title>free</title>
<path fill="#40e0d0" stroke="#000000" stroke-width="2" d="M152.7903,-199C152.7903,-199 63.2697,-199 63.2697,-199 57.2697,-199 51.2697,-193 51.2697,-187 51.2697,-187 51.2697,-175 51.2697,-175 51.2697,-169 57.2697,-163 63.2697,-163 63.2697,-163 152.7903,-163 152.7903,-163 158.7903,-163 164.7903,-169 164.7903,-175 164.7903,-175 164.7903,-187 164.7903,-187 164.7903,-193 158.7903,-199 152.7903,-199"/>
<text text-anchor="middle" x="108.03" y="-184" font-family="Arial" font-size="10.00" fill="#000000">Free</text>
<text text-anchor="middle" x="108.03" y="-172" font-family="Arial" font-size="10.00" fill="#000000">entry / on_enter_state</text>
</g>
<!-- centerstate_anchor&#45;&gt;free -->
<g id="edge1" class="edge">
<title>centerstate_anchor&#45;&gt;free</title>
<path fill="none" stroke="#0000ff" d="M14.4514,-181C20.6744,-181 30.3271,-181 41.1123,-181"/>
<polygon fill="#0000ff" stroke="#0000ff" points="41.2697,-184.5001 51.2697,-181 41.2696,-177.5001 41.2697,-184.5001"/>
</g>
<!-- free&#45;&gt;free -->
<g id="edge3" class="edge">
<title>free&#45;&gt;free</title>
<path fill="none" stroke="#0000ff" d="M94.6428,-199.1527C92.5832,-208.5391 97.0456,-217 108.03,-217 114.7236,-217 118.9954,-213.8581 120.8452,-209.2796"/>
<polygon fill="#0000ff" stroke="#0000ff" points="124.3476,-209.3342 121.4172,-199.1527 117.3588,-208.9394 124.3476,-209.3342"/>
<text text-anchor="middle" x="108.03" y="-219.7" font-family="Arial" font-size="9.00" fill="#000000">force_to_free</text>
</g>
<!-- edit -->
<g id="node3" class="node">
<title>edit</title>
<path fill="#ffffff" stroke="#000000" d="M414.0906,-195C414.0906,-195 324.57,-195 324.57,-195 318.57,-195 312.57,-189 312.57,-183 312.57,-183 312.57,-171 312.57,-171 312.57,-165 318.57,-159 324.57,-159 324.57,-159 414.0906,-159 414.0906,-159 420.0906,-159 426.0906,-165 426.0906,-171 426.0906,-171 426.0906,-183 426.0906,-183 426.0906,-189 420.0906,-195 414.0906,-195"/>
<text text-anchor="middle" x="369.3303" y="-180" font-family="Arial" font-size="10.00" fill="#000000">Edit</text>
<text text-anchor="middle" x="369.3303" y="-168" font-family="Arial" font-size="10.00" fill="#000000">entry / on_enter_state</text>
</g>
<!-- free&#45;&gt;edit -->
<g id="edge2" class="edge">
<title>free&#45;&gt;edit</title>
<path fill="none" stroke="#0000ff" d="M164.7283,-180.1321C205.1652,-179.513 259.6947,-178.6783 302.2909,-178.0262"/>
<polygon fill="#0000ff" stroke="#0000ff" points="302.3469,-181.5259 312.2921,-177.8731 302.2397,-174.5267 302.3469,-181.5259"/>
<text text-anchor="middle" x="238.6802" y="-181.7" font-family="Arial" font-size="9.00" fill="#000000">progress</text>
</g>
<!-- edit&#45;&gt;free -->
<g id="edge4" class="edge">
<title>edit&#45;&gt;free</title>
<path fill="none" stroke="#0000ff" d="M312.6126,-188.9832C300.4867,-191.0713 287.712,-192.9184 275.7003,-194 242.9261,-196.9512 234.4885,-196.2682 201.66,-194 192.9764,-193.4 183.8719,-192.4907 174.8937,-191.4258"/>
<polygon fill="#0000ff" stroke="#0000ff" points="175.1975,-187.9366 164.8398,-190.1657 174.3269,-194.8823 175.1975,-187.9366"/>
<text text-anchor="middle" x="238.6802" y="-197.7" font-family="Arial" font-size="9.00" fill="#000000">abandon_changes</text>
</g>
<!-- edit&#45;&gt;free -->
<g id="edge6" class="edge">
<title>edit&#45;&gt;free</title>
<path fill="none" stroke="#0000ff" d="M312.537,-167.2706C300.4162,-165.5757 287.6627,-164.0768 275.7003,-163.2 242.8815,-160.7944 234.4217,-160.1135 201.66,-163.2 192.9227,-164.0232 183.7867,-165.2693 174.7924,-166.7278"/>
<polygon fill="#0000ff" stroke="#0000ff" points="173.9912,-163.314 164.7264,-168.4535 175.1741,-170.2133 173.9912,-163.314"/>
<text text-anchor="middle" x="238.6802" y="-165.7" font-family="Arial" font-size="9.00" fill="#000000">force_to_free</text>
</g>
<!-- w01_transfer -->
<g id="node4" class="node">
<title>w01_transfer</title>
<path fill="#ffffff" stroke="#000000" d="M654.3678,-186C654.3678,-186 564.8472,-186 564.8472,-186 558.8472,-186 552.8472,-180 552.8472,-174 552.8472,-174 552.8472,-162 552.8472,-162 552.8472,-156 558.8472,-150 564.8472,-150 564.8472,-150 654.3678,-150 654.3678,-150 660.3678,-150 666.3678,-156 666.3678,-162 666.3678,-162 666.3678,-174 666.3678,-174 666.3678,-180 660.3678,-186 654.3678,-186"/>
<text text-anchor="middle" x="609.6075" y="-171" font-family="Arial" font-size="10.00" fill="#000000">W01 transfer</text>
<text text-anchor="middle" x="609.6075" y="-159" font-family="Arial" font-size="10.00" fill="#000000">entry / on_enter_state</text>
</g>
<!-- edit&#45;&gt;w01_transfer -->
<g id="edge5" class="edge">
<title>edit&#45;&gt;w01_transfer</title>
<path fill="none" stroke="#0000ff" d="M425.9684,-174.8785C460.9707,-173.5675 506.0648,-171.8784 542.8073,-170.5021"/>
<polygon fill="#0000ff" stroke="#0000ff" points="543.0718,-173.9948 552.9338,-170.1228 542.8098,-166.9997 543.0718,-173.9948"/>
<text text-anchor="middle" x="489.4689" y="-175.7" font-family="Arial" font-size="9.00" fill="#000000">progress</text>
</g>
<!-- w01_transfer&#45;&gt;free -->
<g id="edge9" class="edge">
<title>w01_transfer&#45;&gt;free</title>
<path fill="none" stroke="#0000ff" d="M552.7979,-156.753C516.6506,-150.1783 468.7535,-142.5351 425.9603,-139.2 326.2602,-131.4299 299.9885,-138.7796 201.66,-157 192.8145,-158.6391 183.5678,-160.6441 174.4757,-162.79"/>
<polygon fill="#0000ff" stroke="#0000ff" points="173.5893,-159.4035 164.6969,-165.1632 175.2402,-166.206 173.5893,-159.4035"/>
<text text-anchor="middle" x="369.3303" y="-141.7" font-family="Arial" font-size="9.00" fill="#000000">force_to_free</text>
</g>
<!-- w02_prod -->
<g id="node5" class="node">
<title>w02_prod</title>
<path fill="#ffffff" stroke="#000000" d="M1158.4284,-202C1158.4284,-202 1068.9078,-202 1068.9078,-202 1062.9078,-202 1056.9078,-196 1056.9078,-190 1056.9078,-190 1056.9078,-178 1056.9078,-178 1056.9078,-172 1062.9078,-166 1068.9078,-166 1068.9078,-166 1158.4284,-166 1158.4284,-166 1164.4284,-166 1170.4284,-172 1170.4284,-178 1170.4284,-178 1170.4284,-190 1170.4284,-190 1170.4284,-196 1164.4284,-202 1158.4284,-202"/>
<text text-anchor="middle" x="1113.6681" y="-187" font-family="Arial" font-size="10.00" fill="#000000">W02 prod</text>
<text text-anchor="middle" x="1113.6681" y="-175" font-family="Arial" font-size="10.00" fill="#000000">entry / on_enter_state</text>
</g>
<!-- w01_transfer&#45;&gt;w02_prod -->
<g id="edge7" class="edge">
<title>w01_transfer&#45;&gt;w02_prod</title>
<path fill="none" stroke="#0000ff" d="M666.5186,-172.7368C678.6314,-173.6099 691.3519,-174.4258 703.2375,-175 824.2452,-180.8461 965.5072,-182.8966 1046.777,-183.6146"/>
<polygon fill="#0000ff" stroke="#0000ff" points="1046.8401,-187.1152 1056.8692,-183.6996 1046.8991,-180.1154 1046.8401,-187.1152"/>
<text text-anchor="middle" x="849.8847" y="-183.7" font-family="Arial" font-size="9.00" fill="#000000">progress</text>
</g>
<!-- w_reco_trans -->
<g id="node7" class="node">
<title>w_reco_trans</title>
<path fill="#ffffff" stroke="#000000" d="M894.645,-166C894.645,-166 805.1244,-166 805.1244,-166 799.1244,-166 793.1244,-160 793.1244,-154 793.1244,-154 793.1244,-142 793.1244,-142 793.1244,-136 799.1244,-130 805.1244,-130 805.1244,-130 894.645,-130 894.645,-130 900.645,-130 906.645,-136 906.645,-142 906.645,-142 906.645,-154 906.645,-154 906.645,-160 900.645,-166 894.645,-166"/>
<text text-anchor="middle" x="849.8847" y="-151" font-family="Arial" font-size="10.00" fill="#000000">W reco trans</text>
<text text-anchor="middle" x="849.8847" y="-139" font-family="Arial" font-size="10.00" fill="#000000">entry / on_enter_state</text>
</g>
<!-- w01_transfer&#45;&gt;w_reco_trans -->
<g id="edge8" class="edge">
<title>w01_transfer&#45;&gt;w_reco_trans</title>
<path fill="none" stroke="#0000ff" d="M666.2456,-163.2856C701.2479,-160.3721 746.342,-156.6186 783.0845,-153.5603"/>
<polygon fill="#0000ff" stroke="#0000ff" points="783.5358,-157.0349 793.211,-152.7174 782.9551,-150.059 783.5358,-157.0349"/>
<text text-anchor="middle" x="729.7461" y="-162.7" font-family="Arial" font-size="9.00" fill="#000000">problem</text>
</g>
<!-- w02_prod&#45;&gt;free -->
<g id="edge12" class="edge">
<title>w02_prod&#45;&gt;free</title>
<path fill="none" stroke="#0000ff" d="M1056.9841,-187.8301C1015.365,-190.5092 957.4484,-193.9602 906.5147,-196 626.3083,-207.2217 556.114,-206.8887 275.7003,-210 242.7955,-210.3651 234.1964,-214.9234 201.66,-210 189.961,-208.2297 177.71,-205.2817 166.0698,-201.9264"/>
<polygon fill="#0000ff" stroke="#0000ff" points="167.0459,-198.5652 156.4613,-199.029 165.025,-205.2671 167.0459,-198.5652"/>
<text text-anchor="middle" x="609.6075" y="-208.7" font-family="Arial" font-size="9.00" fill="#000000">force_to_free</text>
</g>
<!-- version_check -->
<g id="node6" class="node">
<title>version_check</title>
<path fill="#ffffff" stroke="#000000" d="M1630.9764,-165C1630.9764,-165 1541.4558,-165 1541.4558,-165 1535.4558,-165 1529.4558,-159 1529.4558,-153 1529.4558,-153 1529.4558,-141 1529.4558,-141 1529.4558,-135 1535.4558,-129 1541.4558,-129 1541.4558,-129 1630.9764,-129 1630.9764,-129 1636.9764,-129 1642.9764,-135 1642.9764,-141 1642.9764,-141 1642.9764,-153 1642.9764,-153 1642.9764,-159 1636.9764,-165 1630.9764,-165"/>
<text text-anchor="middle" x="1586.2161" y="-150" font-family="Arial" font-size="10.00" fill="#000000">Version check</text>
<text text-anchor="middle" x="1586.2161" y="-138" font-family="Arial" font-size="10.00" fill="#000000">entry / on_enter_state</text>
</g>
<!-- w02_prod&#45;&gt;version_check -->
<g id="edge10" class="edge">
<title>w02_prod&#45;&gt;version_check</title>
<path fill="none" stroke="#0000ff" d="M1148.3037,-165.9336C1169.4547,-156.5413 1197.3812,-147 1223.549,-147 1223.549,-147 1223.549,-147 1459.823,-147 1479.0743,-147 1499.975,-147 1519.1336,-147"/>
<polygon fill="#0000ff" stroke="#0000ff" points="1519.2749,-150.5001 1529.2749,-147 1519.2749,-143.5001 1519.2749,-150.5001"/>
<text text-anchor="middle" x="1333.4298" y="-149.7" font-family="Arial" font-size="9.00" fill="#000000">progress</text>
</g>
<!-- w_reco_prod -->
<g id="node8" class="node">
<title>w_reco_prod</title>
<path fill="#ffffff" stroke="#000000" d="M1378.1901,-212C1378.1901,-212 1288.6695,-212 1288.6695,-212 1282.6695,-212 1276.6695,-206 1276.6695,-200 1276.6695,-200 1276.6695,-188 1276.6695,-188 1276.6695,-182 1282.6695,-176 1288.6695,-176 1288.6695,-176 1378.1901,-176 1378.1901,-176 1384.1901,-176 1390.1901,-182 1390.1901,-188 1390.1901,-188 1390.1901,-200 1390.1901,-200 1390.1901,-206 1384.1901,-212 1378.1901,-212"/>
<text text-anchor="middle" x="1333.4298" y="-197" font-family="Arial" font-size="10.00" fill="#000000">W reco prod</text>
<text text-anchor="middle" x="1333.4298" y="-185" font-family="Arial" font-size="10.00" fill="#000000">entry / on_enter_state</text>
</g>
<!-- w02_prod&#45;&gt;w_reco_prod -->
<g id="edge11" class="edge">
<title>w02_prod&#45;&gt;w_reco_prod</title>
<path fill="none" stroke="#0000ff" d="M1170.548,-186.5883C1199.9129,-187.9245 1235.9187,-189.5629 1266.6034,-190.9591"/>
<polygon fill="#0000ff" stroke="#0000ff" points="1266.6395,-194.4643 1276.7883,-191.4226 1266.9578,-187.4716 1266.6395,-194.4643"/>
<text text-anchor="middle" x="1223.549" y="-191.7" font-family="Arial" font-size="9.00" fill="#000000">problem</text>
</g>
<!-- version_check&#45;&gt;free -->
<g id="edge13" class="edge">
<title>version_check&#45;&gt;free</title>
<path fill="none" stroke="#0000ff" d="M1573.4067,-128.6262C1552.8431,-101.5231 1509.6781,-54 1459.823,-54 925.0147,-54 925.0147,-54 925.0147,-54 711.3014,-54 658.1736,-37 444.4603,-37 238.6802,-37 238.6802,-37 238.6802,-37 212.9052,-37 203.1169,-36.32 182.66,-52 149.0439,-77.7663 127.9035,-123.3277 117.0291,-152.8325"/>
<polygon fill="#0000ff" stroke="#0000ff" points="113.6308,-151.9455 113.6072,-162.5403 120.2326,-154.2726 113.6308,-151.9455"/>
<text text-anchor="middle" x="849.8847" y="-55.7" font-family="Arial" font-size="9.00" fill="#000000">progress</text>
</g>
<!-- version_check&#45;&gt;free -->
<g id="edge15" class="edge">
<title>version_check&#45;&gt;free</title>
<path fill="none" stroke="#0000ff" d="M1555.4016,-128.9516C1530.4805,-116.0644 1494.0326,-101 1459.823,-101 925.0147,-101 925.0147,-101 925.0147,-101 817.7781,-101 551.6969,-57 444.4603,-57 238.6802,-57 238.6802,-57 238.6802,-57 182.8457,-57 141.3424,-117.3166 121.3391,-153.8152"/>
<polygon fill="#0000ff" stroke="#0000ff" points="118.0789,-152.4933 116.4967,-162.9693 124.2665,-155.7665 118.0789,-152.4933"/>
<text text-anchor="middle" x="849.8847" y="-102.7" font-family="Arial" font-size="9.00" fill="#000000">force_to_free</text>
</g>
<!-- w_reco_version -->
<g id="node9" class="node">
<title>w_reco_version</title>
<path fill="#ffffff" stroke="#000000" d="M1850.7381,-279C1850.7381,-279 1761.2175,-279 1761.2175,-279 1755.2175,-279 1749.2175,-273 1749.2175,-267 1749.2175,-267 1749.2175,-255 1749.2175,-255 1749.2175,-249 1755.2175,-243 1761.2175,-243 1761.2175,-243 1850.7381,-243 1850.7381,-243 1856.7381,-243 1862.7381,-249 1862.7381,-255 1862.7381,-255 1862.7381,-267 1862.7381,-267 1862.7381,-273 1856.7381,-279 1850.7381,-279"/>
<text text-anchor="middle" x="1805.9778" y="-264" font-family="Arial" font-size="10.00" fill="#000000">W reco version</text>
<text text-anchor="middle" x="1805.9778" y="-252" font-family="Arial" font-size="10.00" fill="#000000">entry / on_enter_state</text>
</g>
<!-- version_check&#45;&gt;w_reco_version -->
<g id="edge14" class="edge">
<title>version_check&#45;&gt;w_reco_version</title>
<path fill="none" stroke="#0000ff" d="M1621.038,-165.0636C1659.182,-184.8506 1720.4417,-216.6287 1761.906,-238.138"/>
<polygon fill="#0000ff" stroke="#0000ff" points="1760.4672,-241.3345 1770.9557,-242.8325 1763.6906,-235.1208 1760.4672,-241.3345"/>
<text text-anchor="middle" x="1696.097" y="-213.7" font-family="Arial" font-size="9.00" fill="#000000">problem</text>
</g>
<!-- w_reco_trans&#45;&gt;free -->
<g id="edge17" class="edge">
<title>w_reco_trans&#45;&gt;free</title>
<path fill="none" stroke="#0000ff" d="M817.6555,-129.8686C788.5542,-114.181 747.6399,-94 729.7461,-94 534.4775,-94 534.4775,-94 534.4775,-94 385.2126,-94 345.1928,-98.0324 201.66,-139 184.7774,-143.8187 167.018,-151.1513 151.5587,-158.3483"/>
<polygon fill="#0000ff" stroke="#0000ff" points="149.7751,-155.3213 142.2587,-162.7882 152.791,-161.6383 149.7751,-155.3213"/>
<text text-anchor="middle" x="489.4689" y="-96.7" font-family="Arial" font-size="9.00" fill="#000000">force_to_free</text>
</g>
<!-- w_reco_trans&#45;&gt;w02_prod -->
<g id="edge16" class="edge">
<title>w_reco_trans&#45;&gt;w02_prod</title>
<path fill="none" stroke="#0000ff" d="M906.6935,-154.0395C939.8092,-157.736 982.3476,-162.786 1020.0381,-168.2 1028.6928,-169.4432 1037.7803,-170.8495 1046.7498,-172.2979"/>
<polygon fill="#0000ff" stroke="#0000ff" points="1046.3628,-175.7811 1056.7972,-173.9446 1047.495,-168.8732 1046.3628,-175.7811"/>
<text text-anchor="middle" x="981.7764" y="-170.7" font-family="Arial" font-size="9.00" fill="#000000">reco_trans_done</text>
</g>
<!-- w_reco_prod&#45;&gt;free -->
<g id="edge19" class="edge">
<title>w_reco_prod&#45;&gt;free</title>
<path fill="none" stroke="#0000ff" d="M1288.4683,-212.057C1268.8598,-218.4106 1245.4001,-224 1223.549,-224 1038.5381,-224 1038.5381,-224 1038.5381,-224 958.6924,-224 246.6417,-222.1453 201.66,-216 185.7219,-213.8226 169.0501,-208.6331 154.2655,-202.8984"/>
<polygon fill="#0000ff" stroke="#0000ff" points="155.4313,-199.5944 144.8491,-199.0774 152.7992,-206.0807 155.4313,-199.5944"/>
<text text-anchor="middle" x="729.7461" y="-225.7" font-family="Arial" font-size="9.00" fill="#000000">force_to_free</text>
</g>
<!-- w_reco_prod&#45;&gt;version_check -->
<g id="edge18" class="edge">
<title>w_reco_prod&#45;&gt;version_check</title>
<path fill="none" stroke="#0000ff" d="M1390.16,-183.4523C1428.4052,-176.3414 1479.0258,-166.9297 1519.2499,-159.4509"/>
<polygon fill="#0000ff" stroke="#0000ff" points="1520.0468,-162.8628 1529.2385,-157.5937 1518.7672,-155.9807 1520.0468,-162.8628"/>
<text text-anchor="middle" x="1459.823" y="-178.7" font-family="Arial" font-size="9.00" fill="#000000">reco_prod_done</text>
</g>
<!-- w_reco_version&#45;&gt;free -->
<g id="edge20" class="edge">
<title>w_reco_version&#45;&gt;free</title>
<path fill="none" stroke="#0000ff" d="M1749.2308,-261C1732.1513,-261 1713.3612,-261 1696.097,-261 1038.5381,-261 1038.5381,-261 1038.5381,-261 880.4359,-261 842.8397,-298 684.7375,-298 238.6802,-298 238.6802,-298 238.6802,-298 184.8757,-298 143.0992,-242.2528 122.382,-207.7196"/>
<polygon fill="#0000ff" stroke="#0000ff" points="125.3839,-205.9191 117.339,-199.0248 119.3287,-209.4312 125.3839,-205.9191"/>
<text text-anchor="middle" x="981.7764" y="-268.7" font-family="Arial" font-size="9.00" fill="#000000">reco_version_done</text>
</g>
<!-- w_reco_version&#45;&gt;free -->
<g id="edge21" class="edge">
<title>w_reco_version&#45;&gt;free</title>
<path fill="none" stroke="#0000ff" d="M1780.2051,-279.037C1758.7318,-292.2913 1726.8046,-308 1696.097,-308 925.0147,-308 925.0147,-308 925.0147,-308 818.1324,-308 791.6198,-318 684.7375,-318 238.6802,-318 238.6802,-318 238.6802,-318 178.7134,-318 137.8594,-248.4083 119.3353,-208.4236"/>
<polygon fill="#0000ff" stroke="#0000ff" points="122.4857,-206.8946 115.2105,-199.1925 116.0947,-209.7504 122.4857,-206.8946"/>
<text text-anchor="middle" x="981.7764" y="-310.7" font-family="Arial" font-size="9.00" fill="#000000">force_to_free</text>
</g>
</g>
</svg>
